<svg xmlns="http://www.w3.org/2000/svg" viewBox="0 0 512 512" role="img" aria-labelledby="title">
  <title id="title">ChatOne</title>
  <defs>
    <linearGradient id="accent" x1="0" y1="0" x2="1" y2="1">
      <stop offset="0" stop-color="#496f60"/>
      <stop offset="1" stop-color="#29483d"/>
    </linearGradient>
  </defs>
  <path d="M108 92h296c46 0 84 38 84 84v154c0 46-38 84-84 84H272l-112 78v-78h-52c-46 0-84-38-84-84V176c0-46 38-84 84-84Z" fill="url(#accent)"/>
  <path d="M256 150c9 48 32 71 80 80-48 9-71 32-80 80-9-48-32-71-80-80 48-9 71-32 80-80Z" fill="#faf8f3"/>
  <circle cx="190" cy="343" r="17" fill="#b9cdc2"/>
  <rect x="223" y="327" width="104" height="32" rx="16" fill="#b9cdc2"/>
</svg>
